<?xml version="1.0" standalone="no"?>
<!DOCTYPE svg PUBLIC "-//W3C//DTD SVG 20010904//EN"
 "http://www.w3.org/TR/2001/REC-SVG-20010904/DTD/svg10.dtd">
<svg version="1.0" xmlns="http://www.w3.org/2000/svg"
 width="700.000000pt" height="700.000000pt" viewBox="0 0 700.000000 700.000000"
 preserveAspectRatio="xMidYMid meet">
<metadata>
Created by potrace 1.11, written by Peter Selinger 2001-2013
</metadata>
<g transform="translate(0.000000,700.000000) scale(0.100000,-0.100000)"
fill="#000000" stroke="none">
<path d="M735 6968 c-335 -30 -617 -285 -688 -623 -13 -61 -15 -435 -13 -2855
1 -1532 5 -2798 9 -2815 36 -145 70 -223 132 -310 124 -172 271 -267 500 -322
44 -10 5583 -13 5641 -2 263 48 481 215 585 445 38 86 47 114 65 204 10 50 11
5511 1 5595 -40 348 -321 637 -662 681 -76 10 -5462 12 -5570 2z"/>
</g>
</svg>
