<?xml version="1.0" encoding="utf-8"?>
<!-- Generator: Adobe Illustrator 20.1.0, SVG Export Plug-In . SVG Version: 6.00 Build 0)  -->
<svg version="1.1" id="Layer_1" xmlns="http://www.w3.org/2000/svg" xmlns:xlink="http://www.w3.org/1999/xlink" x="0px" y="0px"
	 width="91.3px" height="62.8px" viewBox="0 0 91.3 62.8" style="enable-background:new 0 0 91.3 62.8;" xml:space="preserve">
<style type="text/css">
	.st0{fill:#333333;}
</style>
<path class="st0" d="M83.3,1.3h-75c-4.1,0-7.5,3.4-7.5,7.5v45c0,4.1,3.4,7.5,7.5,7.5h75c4.1,0,7.5-3.4,7.5-7.5v-45
	C90.8,4.6,87.3,1.3,83.3,1.3z M82.3,6.3L81.6,7L45.8,38L10,7L9.3,6.3H82.3z M6.6,51.8L6.6,51.8l-0.9,0.9v-43l0.7,0.7l0.1,0.1
	l23.8,20.7L6.6,51.8z M9.3,56.3l0.7-0.7l24.3-21l9.9,8.6c0.5,0.4,1.1,0.6,1.6,0.6s1.2-0.2,1.6-0.6l9.9-8.6l24.3,21l0.7,0.7H9.3z
	 M85.8,52.8l-0.7-0.7L85,52L61.2,31.3L85,10.7l0.1-0.1l0.7-0.7C85.7,9.8,85.7,52.8,85.8,52.8z"/>
</svg>
