<?xml version="1.0" encoding="utf-8"?>
<!-- Generator: Adobe Illustrator 20.1.0, SVG Export Plug-In . SVG Version: 6.00 Build 0)  -->
<svg version="1.1" id="Layer_1" xmlns="http://www.w3.org/2000/svg" xmlns:xlink="http://www.w3.org/1999/xlink" x="0px" y="0px"
	 width="70.5px" height="92.8px" viewBox="0 0 70.5 92.8" style="enable-background:new 0 0 70.5 92.8;" xml:space="preserve">
<style type="text/css">
	.st0{fill:#333333;}
</style>
<title>94all</title>
<path class="st0" d="M69.3,34.7C68,16.4,53.1,2.1,35.3,2.1S2.5,16.4,1.3,34.7c-0.5,8.4,2.1,16.7,7.2,23.4l24.4,32.6
	c1,1.3,2.9,1.6,4.2,0.6c0.2-0.2,0.4-0.4,0.6-0.6L62,58C67.1,51.4,69.7,43.1,69.3,34.7z M57.3,54.5l-22,29.4l-22-29.4
	c-4.2-5.5-6.4-12.4-6-19.4c0.9-13.3,11.6-27,28-27s27.1,13.7,28,27C63.6,42.1,61.5,48.9,57.3,54.5z"/>
<path class="st0" d="M35.3,20.2c-8,0-14.5,6.4-14.6,14.4c0,8,6.4,14.5,14.4,14.6c8,0,14.5-6.4,14.6-14.4c0,0,0,0,0-0.1
	C49.7,26.8,43.2,20.3,35.3,20.2z M35.3,43.2c-4.7,0-8.5-3.7-8.6-8.4c0-4.7,3.7-8.5,8.4-8.6s8.5,3.7,8.6,8.4c0,0,0,0,0,0.1
	C43.7,39.4,39.9,43.2,35.3,43.2L35.3,43.2z"/>
</svg>
